# xmcd CD database file
#
# Track frame offsets:
#	150
#	14940
#	31357
#	44571
#	61212
#	79504
#	95230
#	109978
#	123695
#	138781
#	160275
#	176226
#	192986
#	207320
#	222674
#	238816
#	255100
#	271556
#	289072
#	306111
#	333992
#
# Disc length: 4795 seconds
#
# Revision: 37
# Processed by: cddbd v1.5.1PL0 Copyright (c) Steve Scherf et al.
# Submitted via: CDex 1.51
#
DISCID=4012b915
DTITLE=Various Artist - RTL Dance [CD 1)
DYEAR=2003
DGENRE=Unknown
TTITLE0=Queen and Vanguard - Flash
TTITLE1=Snap - Rhythm Is A Dancer
TTITLE2=Master Blaster - Hypnotic Tango
TTITLE3=Baracuda - Damn! (Remember The Time)
TTITLE4=Sarah Connor - Skin On Skin (Kayrob Dance RMX)
TTITLE5=Armand Van Helden - Funk Phenomena 2K
TTITLE6=B3 - Tonight And Forever (Casino Club Mix)
TTITLE7=DJ Boozywoozy - One More Try
TTITLE8=Anastacia - Paid My Dues
TTITLE9=Milton feat. Sky Sci-Fire - This Could Be The Lovesong
TTITLE10=Marilyn's Boys - I Give You The Stars
TTITLE11=Future Pop - When The Rain Begins To Fall
TTITLE12=Dee Dee - The One
TTITLE13=Soulkeeper - Deeper
TTITLE14=Witchcraft - Magic Melody
TTITLE15=D&M Project - Ride Like The Wind
TTITLE16=Milk Inc. - Breathe Without You
TTITLE17=Mark 'Oh - When The Children Cry
TTITLE18=DJ Bobo - I Believe
TTITLE19=Groove Coverage - God Is A Girl
TTITLE20=Data Track
EXTD=YEAR: 2003
EXTT0=
EXTT1=
EXTT2=
EXTT3=
EXTT4=
EXTT5=
EXTT6=
EXTT7=
EXTT8=
EXTT9=
EXTT10=
EXTT11=
EXTT12=
EXTT13=
EXTT14=
EXTT15=
EXTT16=
EXTT17=
EXTT18=
EXTT19=
EXTT20=
PLAYORDER=
